<?xml version="1.0" encoding="UTF-8" standalone="no"?>
<!-- Created with Inkscape (http://www.inkscape.org/) -->

<svg
   xmlns:dc="http://purl.org/dc/elements/1.1/"
   xmlns:cc="http://creativecommons.org/ns#"
   xmlns:rdf="http://www.w3.org/1999/02/22-rdf-syntax-ns#"
   xmlns:svg="http://www.w3.org/2000/svg"
   xmlns="http://www.w3.org/2000/svg"
   xmlns:sodipodi="http://sodipodi.sourceforge.net/DTD/sodipodi-0.dtd"
   xmlns:inkscape="http://www.inkscape.org/namespaces/inkscape"
   width="120"
   height="120"
   id="svg13095"
   version="1.1"
   inkscape:version="0.92.2 5c3e80d, 2017-08-06"
   sodipodi:docname="logo.svg"
   inkscape:export-filename="/home/jack/Desktop/X/Projects/Coding/Ruby/plankton/doc/assets/logo.png"
   inkscape:export-xdpi="400"
   inkscape:export-ydpi="400">
  <defs
     id="defs13097" />
  <sodipodi:namedview
     id="base"
     pagecolor="#ffffff"
     bordercolor="#666666"
     borderopacity="1.0"
     inkscape:pageopacity="0.0"
     inkscape:pageshadow="2"
     inkscape:zoom="2.8"
     inkscape:cx="34.720256"
     inkscape:cy="39.813015"
     inkscape:document-units="px"
     inkscape:current-layer="layer1"
     showgrid="false"
     inkscape:window-width="1916"
     inkscape:window-height="1031"
     inkscape:window-x="0"
     inkscape:window-y="47"
     inkscape:window-maximized="0"
     fit-margin-top="0"
     fit-margin-left="0"
     fit-margin-right="0"
     fit-margin-bottom="0" />
  <metadata
     id="metadata13100">
    <rdf:RDF>
      <cc:Work
         rdf:about="">
        <dc:format>image/svg+xml</dc:format>
        <dc:type
           rdf:resource="http://purl.org/dc/dcmitype/StillImage" />
        <dc:title></dc:title>
      </cc:Work>
    </rdf:RDF>
  </metadata>
  <g
     inkscape:label="Layer 1"
     inkscape:groupmode="layer"
     id="layer1"
     transform="translate(-86.730051,-1032.3142)">
    <flowRoot
       xml:space="preserve"
       id="flowRoot5209"
       style="font-style:normal;font-weight:normal;line-height:0.01%;font-family:sans-serif;letter-spacing:0px;word-spacing:0px;fill:#000000;fill-opacity:1;stroke:none"
       transform="translate(-435.44948,-151.19697)"><flowRegion
         id="flowRegion5211"
         style="font-family:sans-serif"><rect
           id="rect5213"
           width="123.23861"
           height="86.873116"
           x="-62.629459"
           y="42.209637"
           style="font-family:sans-serif" /></flowRegion><flowPara
         id="flowPara5215"
         style="font-size:40px;line-height:1.25;font-family:sans-serif">rhetorical raptorrhetorical raptorR</flowPara></flowRoot>    <path
       style="fill:#000000;fill-opacity:1;stroke:none"
       d="m 153.71417,1057.3205 c -0.7761,0.3663 -1.57061,0.7787 -2.36592,1.237 -3.98604,2.2973 -5.34454,6.1145 -5.74892,7.6671 -0.79221,-0.1281 -1.52039,-0.052 -2.16252,0.2533 -0.67282,0.3197 -1.21045,0.8696 -1.61857,1.6157 -1.55813,-0.685 -5.27487,-1.903 -9.43482,-0.316 -0.85768,0.3272 -1.67894,0.6832 -2.45322,1.0533 -4.18145,1.9985 -7.01086,4.3675 -7.01086,4.3675 0,0 -22.75625,15.5152 -30.378548,20.4395 -1.22635,0.7923 -1.48529,1.1298 -2.34824,1.4447 -0.89777,0.3276 -2.83529,0.4199 -2.83529,0.4199 0,0 1.97977,0.5328 2.976609,0.427 0.48039,-0.051 0.61236,0 1.17481,-0.2567 0,0 1.45778,4.8625 2.59345,7.1246 1.707261,3.4005 6.278049,9.534 6.278049,9.534 0,0 -3.642969,-6.4322 -4.979919,-9.8628 -0.95216,-2.4432 -2.24464,-7.5559 -2.24464,-7.5559 0,0 25.000349,-17.3014 34.341479,-22.7596 7.47634,-4.3687 11.99968,-2.3938 13.50818,-1.4307 -0.14921,0.9976 -0.18827,2.1358 -0.12587,3.3828 -1.44837,0.3241 -5.83161,1.4805 -7.55398,3.9637 -2.07648,2.9938 -2.13382,3.6392 -2.13382,3.6392 0,0 0.16906,-0.4103 2.24554,-3.4041 1.68186,-2.4248 5.9088,-3.5886 7.45535,-3.9439 0.008,0.1284 0.0168,0.2574 0.0268,0.388 -0.90929,0.338 -3.04447,1.1639 -3.91676,1.8299 -1.18727,0.9066 -2.86488,3.4463 -2.86488,3.4463 0,0 1.79313,-2.3571 2.9766,-3.2112 0.84613,-0.6106 2.85396,-1.417 3.82685,-1.7917 0.0122,0.1412 0.0259,0.283 0.0406,0.4265 -0.94753,0.3835 -3.84406,1.6525 -5.4332,3.4331 -1.91398,2.1447 -2.76104,7.0757 -2.76104,7.0757 0,0 0.95878,-4.6959 2.87276,-6.8406 1.54635,-1.7327 4.32732,-2.9785 5.35063,-3.3984 0.0117,0.1057 0.0207,0.2104 0.0337,0.3172 -0.85914,0.4706 -2.76791,1.5634 -3.47041,2.3428 -1.30711,1.4501 -2.80604,5.1428 -2.80604,5.1428 0,0 1.61804,-3.5182 2.91775,-4.9078 0.69055,-0.7382 2.50217,-1.794 3.39852,-2.295 0.0351,0.2668 0.0718,0.5359 0.11478,0.81 -0.75372,0.2804 -2.40708,0.9396 -2.95382,1.5253 -1.62453,1.7405 -2.27948,4.8999 -2.76031,6.5846 0.48082,-1.6847 1.26289,-4.6729 2.87203,-6.3495 0.53481,-0.5572 2.10044,-1.1986 2.88597,-1.4976 0.0489,0.2977 0.10212,0.6001 0.16016,0.9055 -0.6439,0.2184 -1.81464,0.6539 -2.18395,1.0514 -0.94694,1.0194 -1.4282,3.9207 -1.4282,3.9207 0,0 0.61102,-2.7311 1.53992,-3.6856 0.36588,-0.376 1.46714,-0.7975 2.11976,-1.0254 0.009,0.042 0.02,0.084 0.0283,0.1261 -0.54762,0.1732 -1.31681,0.448 -1.57294,0.698 -0.69065,0.6739 -1.09415,2.6813 -1.09415,2.6813 0,0 0.53348,-1.8349 1.20587,-2.4463 0.25474,-0.2316 0.97449,-0.4934 1.51415,-0.67 0.79565,3.8373 2.27711,8.2211 4.40129,12.6908 4.70826,9.9069 11.07853,17.1003 15.53469,18.0306 0.30856,0.5234 4.11122,7.0164 4.76855,10.0622 0.68493,3.1736 2.08681,7.1084 2.44584,10.7743 0.17447,1.7815 -0.14921,5.3707 -0.14921,5.3707 0,0 0.75044,-2.5497 0.88312,-3.8644 0.13013,-1.2895 0.0319,-3.0437 -0.0914,-3.8873 -0.36575,-2.5022 1.32899,6.0751 2.54118,8.9188 0.9729,2.2826 2.89603,5.3593 3.75338,6.4293 0,0 -1.93819,-4.3722 -2.68683,-6.6389 -1.95023,-5.9049 -4.65012,-18.0748 -4.65012,-18.0748 0,0 7.7349,9.777 11.08176,15.0181 1.28478,2.012 3.45084,6.2759 3.45084,6.2759 -0.28816,-1.3405 -1.45937,-4.7747 -2.61472,-6.9704 -1.4395,-2.7358 -7.01978,-9.4664 -5.31071,-7.6027 0.57624,0.6283 1.87439,1.8124 2.95648,2.5258 1.1031,0.7274 3.554,1.7557 3.554,1.7557 0,0 -2.98742,-2.0157 -4.25852,-3.276 -2.61573,-2.5934 -4.78127,-6.1652 -6.80953,-8.7005 -1.94971,-2.4371 -4.58523,-9.5078 -4.78947,-10.0568 2.08759,-4.0474 0.53316,-13.5257 -4.17202,-23.4262 -2.12432,-4.4699 -4.58741,-8.3872 -7.0606,-11.4269 0.49132,-0.3144 1.18552,-0.7251 1.53085,-0.7771 0.89868,-0.1353 2.65457,0.6116 2.65457,0.6116 0,0 -1.80753,-0.9566 -2.76629,-0.8467 -0.36086,0.041 -1.0952,0.4863 -1.58788,0.8087 -0.0272,-0.034 -0.0559,-0.067 -0.0835,-0.1 0.59719,-0.3665 1.65803,-0.979 2.18705,-1.0259 1.32674,-0.1174 3.83387,1.1318 3.83387,1.1318 0,0 -2.5572,-1.4573 -3.94559,-1.3668 -0.54613,0.036 -1.65984,0.6922 -2.24447,1.0566 -0.20144,-0.2393 -0.40157,-0.4724 -0.60267,-0.6997 0.73496,-0.4237 2.26084,-1.2532 3.03511,-1.3163 2.3162,-0.1889 5.13067,1.09 6.74054,1.7811 -1.60988,-0.6911 -4.47682,-2.1767 -6.85226,-2.0162 -0.80857,0.055 -2.40745,0.9451 -3.09951,1.3515 -0.18456,-0.2055 -0.37157,-0.4057 -0.55555,-0.6005 0.96114,-0.3826 2.96377,-1.1407 3.97713,-1.2102 1.89821,-0.1303 5.64795,0.8369 5.64795,0.8369 0,0 -3.80981,-1.1697 -5.75969,-1.072 -1.05773,0.053 -3.15461,0.8664 -4.05948,1.2358 -0.0745,-0.077 -0.15041,-0.1507 -0.22468,-0.2264 0.97075,-0.5279 3.73512,-1.9218 6.06542,-2.0271 2.87154,-0.1297 7.11815,2.0925 7.11815,2.0925 0,0 -4.35833,-2.4572 -7.22988,-2.3276 -2.39397,0.1081 -5.25136,1.578 -6.14448,2.0692 -0.10213,-0.102 -0.20331,-0.2023 -0.30504,-0.3008 0.9105,-0.5201 2.84382,-1.5882 3.85731,-1.8602 1.4096,-0.3783 4.36963,-0.2801 4.36963,-0.2801 0,0 -3.02868,-0.3031 -4.48136,0.045 -1.07668,0.258 -3.11069,1.4166 -3.94373,1.9058 -0.0946,-0.09 -0.18797,-0.1755 -0.28216,-0.2621 1.25176,-0.9729 4.86793,-3.5479 7.81942,-3.32 3.6326,0.2806 4.05384,0.4104 4.05384,0.4104 0,0 -0.53296,-0.3649 -4.16556,-0.6455 -3.02386,-0.2335 -6.73697,2.4666 -7.89886,3.3803 -0.96007,-0.865 -1.89871,-1.5698 -2.79419,-2.0897 0.15998,-1.6733 1.3515,-6.5786 9.6513,-9.6884 10.13111,-3.7959 39.33207,-12.249 39.33207,-12.249 0,0 3.14802,4.2308 4.44117,6.5121 1.81569,3.203 4.50434,10.0842 4.50434,10.0842 0,0 -1.86919,-7.4174 -3.42772,-10.8886 -1.03672,-2.3091 -3.88637,-6.5101 -3.88637,-6.5101 0.55079,-0.2767 0.59801,-0.4085 0.94091,-0.7488 0.71155,-0.7061 1.55041,-2.574 1.55041,-2.574 0,0 -1.30054,1.4422 -2.1215,1.9313 -0.78917,0.4703 -1.21068,0.4562 -2.59943,0.9067 -8.6317,2.8004 -35.03068,10.6506 -35.03068,10.6506 0,0 -3.62539,0.6943 -7.81561,2.6742 z"
       id="path8989"
       inkscape:connector-curvature="0" />
  </g>
</svg>
